<svg width="180" height="161" viewBox="0 0 180 161" fill="none" xmlns="http://www.w3.org/2000/svg">
<path fill-rule="evenodd" clip-rule="evenodd" d="M126.751 160.078C142.521 153.011 150.006 146.983 160.84 132.571C171.408 117.647 175.459 108.18 179.305 88.5594C180.907 71.4761 179.843 62.29 175.044 48.674C172.804 39.3626 171.204 34.271 167.942 25.293C166.377 20.8404 164.589 19.5339 159.42 19.7915H154.802C154.226 19.7915 153.768 19.3031 153.808 18.7277C154.232 12.6137 154.894 8.79412 156.431 2.51335C156.521 2.14506 156.398 1.75362 156.1 1.51839C154.163 -0.0142557 152.701 -0.369389 150.023 0.374994C149.683 0.469418 149.427 0.746679 149.345 1.08963L145.618 16.7308C145.382 17.7189 144.499 18.4162 143.483 18.4162C142.786 18.4162 142.139 18.0761 141.689 17.5442C139.681 15.1715 137.781 14.5711 134.644 15.141C133.176 15.4075 131.862 16.2018 130.813 17.2613C127.212 20.897 125.18 23.6528 123.117 28.0392C122.69 28.9462 122.138 29.7947 121.464 30.5359C112.779 40.0781 109.513 46.1411 105.446 56.9262C99.2971 69.7661 97.6019 79.3124 96.9233 99.5622C97.9804 111.586 99.1202 118.483 102.605 131.195C104.502 136.761 106.036 139.834 109.612 144.818C109.674 144.904 109.723 145.002 109.755 145.103C111.125 149.406 112.095 151.784 113.968 155.952C118 159.697 120.851 161.627 126.751 160.078ZM123.349 42.6635L133.6 39.9148C135.959 39.2823 138.384 40.6819 139.017 43.041C139.649 45.4001 138.25 47.8253 135.891 48.4578L125.639 51.2065C123.28 51.839 120.855 50.4393 120.222 48.0802C119.59 45.7212 120.99 43.296 123.349 42.6635ZM130.678 50.992L117.81 54.4422C115.451 55.0747 114.051 57.4998 114.684 59.8589C115.316 62.218 117.741 63.6177 120.101 62.9851L132.968 59.535C135.327 58.9025 136.727 56.4773 136.095 54.1183C135.462 51.7592 133.037 50.3595 130.678 50.992ZM160.688 73.3283L150.238 65.0648C148.323 63.5498 147.998 60.7687 149.513 58.8529C151.028 56.9371 153.809 56.6122 155.725 58.1271L166.174 66.3906C168.09 67.9056 168.415 70.6867 166.9 72.6025C165.385 74.5183 162.604 74.8432 160.688 73.3283ZM147.469 76.1417L157.919 84.4052C159.835 85.9202 162.616 85.5952 164.131 83.6794C165.646 81.7636 165.321 78.9825 163.405 77.4675L152.955 69.204C151.039 67.6891 148.258 68.014 146.743 69.9298C145.228 71.8456 145.553 74.6267 147.469 76.1417ZM155.15 95.4821L144.7 87.2186C142.784 85.7037 142.459 82.9225 143.974 81.0067C145.489 79.0909 148.271 78.766 150.186 80.281L160.636 88.5444C162.552 90.0594 162.877 92.8406 161.362 94.7564C159.847 96.6721 157.066 96.9971 155.15 95.4821ZM144.481 100.884L154.27 109.92C156.065 111.576 158.863 111.464 160.519 109.67C162.176 107.875 162.064 105.077 160.269 103.42L150.48 94.3843C148.685 92.7277 145.887 92.8397 144.23 94.6344C142.574 96.4291 142.686 99.227 144.481 100.884ZM115.041 65.5191L127.909 62.069C130.268 61.4364 132.693 62.8361 133.325 65.1952C133.958 67.5543 132.558 69.9794 130.199 70.6119L117.331 74.0621C114.972 74.6946 112.547 73.2949 111.915 70.9358C111.282 68.5768 112.682 66.1516 115.041 65.5191ZM125.14 73.1459L112.272 76.596C109.913 77.2285 108.513 79.6537 109.146 82.0128C109.778 84.3719 112.203 85.7715 114.562 85.139L127.43 81.6889C129.789 81.0564 131.189 78.6312 130.556 76.2721C129.924 73.913 127.499 72.5134 125.14 73.1459ZM112.272 87.6729L125.14 84.2228C127.499 83.5903 129.924 84.9899 130.556 87.349C131.189 89.7081 129.789 92.1333 127.43 92.7658L114.562 96.2159C112.203 96.8484 109.778 95.4488 109.146 93.0897C108.513 90.7306 109.913 88.3054 112.272 87.6729ZM125.14 95.2997L112.272 98.7498C109.913 99.3824 108.513 101.808 109.146 104.167C109.778 106.526 112.203 107.925 114.562 107.293L127.43 103.843C129.789 103.21 131.189 100.785 130.556 98.4259C129.924 96.0669 127.499 94.6672 125.14 95.2997ZM112.272 109.827L125.14 106.377C127.499 105.744 129.924 107.144 130.556 109.503C131.189 111.862 129.789 114.287 127.43 114.92L114.562 118.37C112.203 119.002 109.778 117.603 109.146 115.244C108.513 112.884 109.913 110.459 112.272 109.827ZM127.358 116.431L114.776 121.203C112.493 122.069 111.343 124.622 112.21 126.906C113.076 129.19 115.629 130.339 117.913 129.473L130.494 124.701C132.778 123.835 133.927 121.282 133.061 118.998C132.195 116.715 129.642 115.565 127.358 116.431ZM123.212 130.955L135.794 126.183C138.077 125.317 140.631 126.466 141.497 128.75C142.363 131.034 141.214 133.587 138.93 134.453L126.348 139.225C124.065 140.091 121.511 138.942 120.645 136.658C119.779 134.374 120.928 131.821 123.212 130.955ZM139.767 46.0509L137.363 59.1545C136.922 61.5569 138.513 63.8615 140.915 64.3022C143.317 64.7428 145.622 63.1525 146.063 60.7502L148.466 47.6465C148.907 45.2442 147.317 42.9395 144.914 42.4989C142.512 42.0583 140.207 43.6485 139.767 46.0509ZM133.721 81.1461L136.125 68.0425C136.565 65.6401 138.87 64.0499 141.272 64.4905C143.675 64.9311 145.265 67.2358 144.824 69.6381L142.421 82.7418C141.98 85.1441 139.676 86.7344 137.273 86.2938C134.871 85.8531 133.281 83.5485 133.721 81.1461ZM132.909 90.3026L131.06 103.496C130.722 105.915 132.408 108.15 134.827 108.489C137.245 108.828 139.481 107.142 139.82 104.723L141.668 91.5297C142.007 89.1109 140.321 86.8754 137.902 86.5365C135.483 86.1977 133.248 87.8838 132.909 90.3026ZM145.763 129.418L136.123 120.222C134.356 118.536 134.29 115.737 135.976 113.97C137.662 112.203 140.461 112.136 142.228 113.822L151.868 123.018C153.635 124.703 153.701 127.503 152.016 129.27C150.33 131.037 147.53 131.103 145.763 129.418ZM141.754 111.998L151.672 120.893C153.49 122.524 156.286 122.372 157.917 120.554C159.548 118.736 159.396 115.94 157.578 114.309L147.66 105.414C145.842 103.783 143.046 103.935 141.415 105.753C139.784 107.571 139.936 110.367 141.754 111.998ZM157.827 45.8624L167.002 53.4556C169.114 55.2029 169.409 58.3311 167.662 60.4426C165.914 62.5542 162.786 62.8494 160.675 61.1021L151.499 53.5089C149.387 51.7616 149.092 48.6333 150.84 46.5218C152.587 44.4103 155.715 44.1151 157.827 45.8624Z" fill="#AAB673"/>
<path d="M35.5668 113.247C63.5221 114.186 76.6096 109.674 100.37 95.1972L104.4 69.8064C104.501 69.1727 104.671 68.5461 104.905 67.9489C111.444 51.3121 116.811 42.3404 128.25 27.2572L123.774 22.8054C123.046 22.0812 122.205 21.4719 121.25 21.0937C116.225 19.1034 110.918 18.9362 104.552 18.9367C80.6089 18.2514 68.7809 22.4998 50.1848 32.8026C35.4774 43.1589 28.0066 49.7149 17.1917 62.7471C16.885 63.1166 16.6037 63.5195 16.361 63.9338C9.8534 75.0459 6.12751 81.6478 1.66336 90.4844C0.589991 92.609 0.424681 95.0778 1.18109 97.3349L1.52028 98.347C2.32757 100.756 4.1164 102.715 6.44562 103.729C16.7722 108.227 23.5815 110.953 34.1531 113.083C34.615 113.177 35.0958 113.231 35.5668 113.247Z" fill="#AAB673"/>
</svg>
