<svg width="1470" height="597" viewBox="0 0 1470 597" fill="none" xmlns="http://www.w3.org/2000/svg">
<g id="logo-tdb-v2">
<path id="letraD" fill-rule="evenodd" clip-rule="evenodd" d="M505.885 596.604V1.16944e-10H805.123C900.504 -8.87335e-05 956.611 50.4963 956.611 145.878V446.986C956.611 540.497 900.504 596.604 805.123 596.604H582.565C635.845 581.906 669.272 545.55 675.753 452.075C743.886 461.617 832.791 453.337 858.202 425.636C858.987 424.78 859.355 423.677 859.355 422.514V364.465C823.82 407.481 638.667 405.61 599.392 364.465V422.309C599.392 423.595 599.843 424.806 600.776 425.69C611.79 436.116 632.365 443.904 657.368 448.956C656.734 555.649 604.404 587.31 505.885 596.604ZM595.394 180.656C640.629 217.73 823.06 219.254 864.034 180.424C865.774 178.774 865.774 176.11 864.034 174.46C823.06 135.63 640.629 137.154 595.394 174.229C593.328 175.922 593.328 178.963 595.394 180.656ZM859.355 257.934V199.885C823.82 242.9 638.667 241.03 599.392 199.885V257.729C599.392 259.015 599.843 260.225 600.776 261.109C642.383 300.496 820.432 302.23 858.202 261.056C858.987 260.199 859.355 259.096 859.355 257.934ZM859.355 282.175V340.224C859.355 341.387 858.987 342.49 858.202 343.346C820.432 384.52 642.383 382.787 600.776 343.399C599.843 342.516 599.392 341.305 599.392 340.019V282.175C638.667 323.32 823.82 325.19 859.355 282.175Z" fill="white"/>
<path id="letraT" d="M292.925 448.856V147.748C393 147.748 442.544 79.6277 442.544 0C442.544 0 347.162 0.000482462 292.925 0H145C45.5 0 0 70.6277 0 147.748H145.176C145.176 243.13 145.176 298.302 145.176 298.302V596.604C246.654 587.63 292.925 555.459 292.925 448.856Z" fill="white"/>
<path id="letraB" fill-rule="evenodd" clip-rule="evenodd" d="M1470 145.878C1470 50.4963 1413.89 -8.87336e-05 1318.51 1.16944e-10H1094.08C1148.32 14.9619 1189.46 54.2369 1189.46 149.619V174.631C1206.88 169.768 1225.64 167.848 1250.93 168.566C1264.75 168.564 1276.16 168.942 1287.02 173.624C1287.96 174.03 1288.8 174.627 1289.53 175.346L1293.47 179.236C1296.95 173.523 1300.99 168.835 1307.06 162.86C1308.12 161.814 1309.44 161.045 1310.89 160.694C1318.85 158.767 1323.21 159.678 1327.85 165.16C1328.78 166.261 1330.12 166.965 1331.56 166.965C1333.67 166.965 1335.49 165.522 1335.98 163.477L1343.84 130.511C1343.92 130.168 1344.18 129.892 1344.52 129.792C1350.68 127.963 1353.78 128.767 1358.2 132.407C1358.49 132.648 1358.61 133.042 1358.52 133.41C1355.13 147.183 1353.75 155.208 1352.86 168.747C1352.82 169.322 1353.28 169.812 1353.85 169.812H1364.55C1375.25 169.279 1378.95 171.983 1382.19 181.199C1388.94 199.782 1392.25 210.32 1396.89 229.593C1406.82 257.775 1409.02 276.789 1405.71 312.148C1397.75 352.759 1389.36 372.354 1367.49 403.243C1345.06 433.073 1329.57 445.551 1296.93 460.178C1284.72 463.385 1278.82 459.388 1270.47 451.637C1266.57 442.958 1264.56 438.028 1261.7 429.018C1261.67 428.917 1261.62 428.818 1261.56 428.732C1254.08 418.333 1250.9 411.968 1246.95 400.396C1239.74 374.083 1237.38 359.809 1235.19 334.922C1235.26 332.957 1235.33 331.041 1235.41 329.171C1218.37 339.203 1203.88 346.627 1189.46 351.879V446.986C1189.46 542.368 1148.32 581.643 1094.08 596.605H1318.51C1413.89 596.605 1470 540.498 1470 446.986C1470 374.652 1465.52 333.724 1433.41 296.432C1465.52 259.141 1470 218.212 1470 145.878ZM1170.76 181.109C1160.55 185.306 1150.13 190.589 1138.43 197.022C1107.77 218.431 1092.31 231.926 1069.66 259.063C1069.36 259.433 1069.07 259.84 1068.82 260.254C1054.26 284.9 1046.4 298.749 1036.26 318.872C1035.18 321.013 1035.01 323.504 1035.78 325.776L1039.07 335.516C1039.88 337.925 1041.69 339.881 1044.02 340.893C1067.89 351.25 1082.38 357.275 1106 361.927C1106.46 362.017 1106.94 362.072 1107.41 362.088C1133.05 362.982 1152.65 361.707 1170.76 357.468V446.986C1170.76 549.849 1118.39 587.253 1019.27 596.605V1.16944e-10C1118.39 9.35122 1170.76 46.756 1170.76 149.619V181.109ZM1289.74 217.193L1311.26 211.424C1316.06 210.137 1320.99 212.985 1322.28 217.786L1322.36 218.083C1323.65 222.884 1320.8 227.819 1316 229.107L1294.48 234.875C1289.68 236.163 1284.75 233.314 1283.46 228.513L1283.38 228.217C1282.09 223.416 1284.94 218.48 1289.74 217.193ZM1305.21 234.351L1278.28 241.571C1273.48 242.859 1270.63 247.794 1271.92 252.595L1272 252.892C1273.29 257.693 1278.22 260.541 1283.02 259.254L1309.95 252.033C1314.76 250.746 1317.6 245.811 1316.32 241.01L1316.24 240.713C1314.95 235.912 1310.01 233.064 1305.21 234.351ZM1367.3 280.718L1345.43 263.424C1341.53 260.341 1340.87 254.681 1343.95 250.782L1344.14 250.541C1347.22 246.642 1352.88 245.981 1356.78 249.064L1378.65 266.358C1382.55 269.441 1383.21 275.101 1380.13 279L1379.94 279.241C1376.85 283.14 1371.19 283.801 1367.3 280.718ZM1339.69 286.35L1361.56 303.644C1365.46 306.727 1371.12 306.066 1374.21 302.167L1374.4 301.927C1377.48 298.028 1376.82 292.368 1372.92 289.285L1351.05 271.991C1347.15 268.907 1341.49 269.569 1338.41 273.468L1338.22 273.708C1335.13 277.607 1335.8 283.267 1339.69 286.35ZM1355.83 326.572L1333.96 309.278C1330.06 306.195 1329.4 300.535 1332.49 296.636L1332.68 296.395C1335.76 292.497 1341.42 291.835 1345.32 294.918L1367.19 312.213C1371.09 315.296 1371.75 320.956 1368.66 324.855L1368.47 325.095C1365.39 328.994 1359.73 329.655 1355.83 326.572ZM1333.52 337.551L1354.01 356.462C1357.66 359.834 1363.35 359.606 1366.73 355.953L1366.93 355.728C1370.31 352.075 1370.08 346.381 1366.43 343.01L1345.94 324.099C1342.29 320.728 1336.59 320.955 1333.22 324.608L1333.01 324.833C1329.64 328.486 1329.87 334.18 1333.52 337.551ZM1272.56 264.498L1299.49 257.277C1304.29 255.99 1309.22 258.839 1310.51 263.64L1310.59 263.936C1311.88 268.737 1309.03 273.672 1304.23 274.96L1277.3 282.18C1272.5 283.468 1267.56 280.619 1266.27 275.818L1266.19 275.522C1264.91 270.721 1267.76 265.785 1272.56 264.498ZM1293.75 280.205L1266.82 287.426C1262.02 288.713 1259.17 293.648 1260.45 298.449L1260.53 298.746C1261.82 303.547 1266.76 306.395 1271.56 305.108L1298.49 297.887C1303.29 296.6 1306.14 291.665 1304.85 286.864L1304.77 286.567C1303.48 281.766 1298.55 278.918 1293.75 280.205ZM1266.82 310.352L1293.75 303.132C1298.55 301.844 1303.48 304.693 1304.77 309.494L1304.85 309.79C1306.14 314.591 1303.29 319.527 1298.49 320.814L1271.56 328.034C1266.76 329.322 1261.82 326.473 1260.53 321.672L1260.45 321.376C1259.17 316.575 1262.02 311.639 1266.82 310.352ZM1293.75 326.06L1266.82 333.281C1262.02 334.568 1259.17 339.503 1260.45 344.304L1260.53 344.601C1261.82 349.402 1266.76 352.25 1271.56 350.963L1298.49 343.742C1303.29 342.455 1306.14 337.52 1304.85 332.719L1304.77 332.422C1303.48 327.621 1298.55 324.773 1293.75 326.06ZM1266.82 356.206L1293.75 348.986C1298.55 347.699 1303.48 350.547 1304.77 355.348L1304.85 355.644C1306.14 360.445 1303.29 365.381 1298.49 366.668L1271.56 373.889C1266.76 375.176 1261.82 372.327 1260.53 367.526L1260.45 367.23C1259.17 362.429 1262.02 357.494 1266.82 356.206ZM1298.34 369.783L1272.01 379.768C1267.36 381.531 1265.02 386.727 1266.79 391.375L1266.89 391.661C1268.66 396.309 1273.85 398.648 1278.5 396.885L1304.83 386.9C1309.48 385.138 1311.82 379.941 1310.05 375.294L1309.94 375.007C1308.18 370.359 1302.99 368.021 1298.34 369.783ZM1289.46 399.952L1315.79 389.967C1320.44 388.205 1325.64 390.543 1327.4 395.191L1327.51 395.478C1329.27 400.125 1326.93 405.322 1322.28 407.084L1295.96 417.069C1291.31 418.832 1286.11 416.493 1284.35 411.845L1284.24 411.558C1282.48 406.911 1284.82 401.714 1289.46 399.952ZM1323.91 224.012L1318.88 251.436C1317.98 256.325 1321.22 261.015 1326.11 261.912L1326.41 261.967C1331.3 262.864 1335.99 259.628 1336.89 254.739L1341.92 227.315C1342.81 222.426 1339.58 217.736 1334.69 216.839L1334.39 216.784C1329.5 215.887 1324.81 219.123 1323.91 224.012ZM1311.34 296.954L1316.37 269.53C1317.26 264.641 1321.95 261.405 1326.84 262.302L1327.15 262.357C1332.03 263.254 1335.27 267.944 1334.37 272.833L1329.34 300.257C1328.45 305.146 1323.76 308.382 1318.87 307.485L1318.57 307.43C1313.68 306.533 1310.44 301.843 1311.34 296.954ZM1309.7 315.605L1305.84 343.216C1305.15 348.139 1308.58 352.688 1313.5 353.378L1313.8 353.421C1318.73 354.11 1323.28 350.679 1323.97 345.756L1327.83 318.145C1328.52 313.222 1325.09 308.673 1320.17 307.983L1319.87 307.94C1314.94 307.251 1310.39 310.682 1309.7 315.605ZM1336.39 396.822L1316.22 377.577C1312.62 374.147 1312.49 368.45 1315.92 364.853L1316.13 364.631C1319.56 361.034 1325.26 360.9 1328.86 364.331L1349.03 383.575C1352.63 387.006 1352.76 392.703 1349.33 396.3L1349.12 396.522C1345.69 400.118 1339.99 400.253 1336.39 396.822ZM1327.87 360.558L1348.63 379.174C1352.33 382.493 1358.02 382.184 1361.33 378.483L1361.54 378.255C1364.86 374.554 1364.55 368.864 1360.85 365.546L1340.09 346.93C1336.39 343.611 1330.7 343.92 1327.38 347.621L1327.18 347.849C1323.86 351.549 1324.17 357.239 1327.87 360.558ZM1360.27 222.962L1381.22 240.3C1385.05 243.469 1385.59 249.142 1382.42 252.971L1380.8 254.931C1377.63 258.76 1371.96 259.295 1368.13 256.126L1347.18 238.789C1343.35 235.62 1342.81 229.947 1345.98 226.117L1347.6 224.158C1350.77 220.329 1356.44 219.793 1360.27 222.962Z" fill="white"/>
</g>
</svg>
